<svg version="1.1" xmlns="http://www.w3.org/2000/svg" xmlns:xlink="http://www.w3.org/1999/xlink" x="0px" y="0px" viewBox="0 0 1024 1024" style="enable-background:new 0 0 1024 1024;" xml:space="preserve">
	<style type="text/css">
		.st0{display:none;}
		.st1{display:inline;}
		.st2{fill:#ED1C24;}
		.st3{display:inline;fill:#C61017;}
		.st4{display:inline;fill:#ED1C24;}
		.st5{fill:#191919;}
		.st6{fill:#C61017;}
	</style>
	<g id="org" class="st0">
		<g class="st1">
			<path class="st2" d="M613.12,413.79H369.03v575.92c0,18.94,15.35,34.29,34.29,34.29h217.35c18.94,0,34.29-15.35,34.29-34.29
				V483.16c0-20.16-8.61-38.31-22.34-50.98L613.12,413.79z"/>
			<path class="st2" d="M585.59,413.79h1.31C586.06,413.77,585.59,413.79,585.59,413.79z"/>
		</g>
		<path class="st3" d="M613.12,413.79L483.29,285.93H2.13c-1.17,0-2.13,0.95-2.13,2.13v56.36c0,38.31,31.06,69.37,69.37,69.37
			l515.85,0.01c0,0,29.83,1.03,43.78,14.98L613.12,413.79z"/>
		<path class="st4" d="M990.15,0H68.92C30.86,0,0,30.86,0,68.92v217.01l0.21,63.93c0,0,1.94-52.3,49.1-63.93h940.84
			c18.69,0,33.84-15.15,33.84-33.84V33.84C1023.99,15.15,1008.84,0,990.15,0z"/>
		<g class="st1">
			<g>
				<path class="st5" d="M107.14,39.48H87.59c-2.89,0-5.23-2.34-5.23-5.23v0c0-2.89,2.34-5.23,5.23-5.23h19.54
					c2.89,0,5.23,2.34,5.23,5.23v0C112.37,37.14,110.03,39.48,107.14,39.48z"/>
				<path class="st5" d="M154.56,39.48h-19.54c-2.89,0-5.23-2.34-5.23-5.23v0c0-2.89,2.34-5.23,5.23-5.23h19.54
					c2.89,0,5.23,2.34,5.23,5.23v0C159.79,37.14,157.45,39.48,154.56,39.48z"/>
				<path class="st5" d="M201.98,39.48h-19.54c-2.89,0-5.23-2.34-5.23-5.23v0c0-2.89,2.34-5.23,5.23-5.23h19.54
					c2.89,0,5.23,2.34,5.23,5.23v0C207.21,37.14,204.87,39.48,201.98,39.48z"/>
				<path class="st5" d="M249.4,39.48h-19.54c-2.89,0-5.23-2.34-5.23-5.23v0c0-2.89,2.34-5.23,5.23-5.23h19.54
					c2.89,0,5.23,2.34,5.23,5.23v0C254.63,37.14,252.29,39.48,249.4,39.48z"/>
				<path class="st5" d="M296.82,39.48h-19.54c-2.89,0-5.23-2.34-5.23-5.23v0c0-2.89,2.34-5.23,5.23-5.23h19.54
					c2.89,0,5.23,2.34,5.23,5.23v0C302.05,37.14,299.71,39.48,296.82,39.48z"/>
				<path class="st5" d="M344.24,39.48H324.7c-2.89,0-5.23-2.34-5.23-5.23v0c0-2.89,2.34-5.23,5.23-5.23h19.54
					c2.89,0,5.23,2.34,5.23,5.23v0C349.47,37.14,347.13,39.48,344.24,39.48z"/>
				<path class="st5" d="M391.66,39.48h-19.54c-2.89,0-5.23-2.34-5.23-5.23v0c0-2.89,2.34-5.23,5.23-5.23h19.54
					c2.89,0,5.23,2.34,5.23,5.23v0C396.9,37.14,394.55,39.48,391.66,39.48z"/>
				<path class="st5" d="M439.09,39.48h-19.54c-2.89,0-5.23-2.34-5.23-5.23v0c0-2.89,2.34-5.23,5.23-5.23h19.54
					c2.89,0,5.23,2.34,5.23,5.23v0C444.32,37.14,441.97,39.48,439.09,39.48z"/>
				<path class="st5" d="M486.51,39.48h-19.54c-2.89,0-5.23-2.34-5.23-5.23v0c0-2.89,2.34-5.23,5.23-5.23h19.54
					c2.89,0,5.23,2.34,5.23,5.23v0C491.74,37.14,489.4,39.48,486.51,39.48z"/>
				<path class="st5" d="M533.93,39.48h-19.54c-2.89,0-5.23-2.34-5.23-5.23v0c0-2.89,2.34-5.23,5.23-5.23h19.54
					c2.89,0,5.23,2.34,5.23,5.23v0C539.16,37.14,536.82,39.48,533.93,39.48z"/>
				<path class="st5" d="M581.35,39.48h-19.54c-2.89,0-5.23-2.34-5.23-5.23v0c0-2.89,2.34-5.23,5.23-5.23h19.54
					c2.89,0,5.23,2.34,5.23,5.23v0C586.58,37.14,584.24,39.48,581.35,39.48z"/>
				<path class="st5" d="M628.77,39.48h-19.54c-2.89,0-5.23-2.34-5.23-5.23v0c0-2.89,2.34-5.23,5.23-5.23h19.54
					c2.89,0,5.23,2.34,5.23,5.23v0C634,37.14,631.66,39.48,628.77,39.48z"/>
				<path class="st5" d="M676.19,39.48h-19.54c-2.89,0-5.23-2.34-5.23-5.23v0c0-2.89,2.34-5.23,5.23-5.23h19.54
					c2.89,0,5.23,2.34,5.23,5.23v0C681.42,37.14,679.08,39.48,676.19,39.48z"/>
				<path class="st5" d="M723.61,39.48h-19.54c-2.89,0-5.23-2.34-5.23-5.23v0c0-2.89,2.34-5.23,5.23-5.23h19.54
					c2.89,0,5.23,2.34,5.23,5.23v0C728.84,37.14,726.5,39.48,723.61,39.48z"/>
				<path class="st5" d="M771.04,39.48h-19.54c-2.89,0-5.23-2.34-5.23-5.23v0c0-2.89,2.34-5.23,5.23-5.23h19.54
					c2.89,0,5.23,2.34,5.23,5.23v0C776.27,37.14,773.92,39.48,771.04,39.48z"/>
				<path class="st5" d="M818.46,39.48h-19.54c-2.89,0-5.23-2.34-5.23-5.23v0c0-2.89,2.34-5.23,5.23-5.23h19.54
					c2.89,0,5.23,2.34,5.23,5.23v0C823.69,37.14,821.35,39.48,818.46,39.48z"/>
				<path class="st5" d="M865.88,39.48h-19.54c-2.89,0-5.23-2.34-5.23-5.23v0c0-2.89,2.34-5.23,5.23-5.23h19.54
					c2.89,0,5.23,2.34,5.23,5.23v0C871.11,37.14,868.77,39.48,865.88,39.48z"/>
				<path class="st5" d="M913.3,39.48h-19.54c-2.89,0-5.23-2.34-5.23-5.23v0c0-2.89,2.34-5.23,5.23-5.23h19.54
					c2.89,0,5.23,2.34,5.23,5.23v0C918.53,37.14,916.19,39.48,913.3,39.48z"/>
				<path class="st5" d="M960.72,39.48h-19.54c-2.89,0-5.23-2.34-5.23-5.23v0c0-2.89,2.34-5.23,5.23-5.23h19.54
					c2.89,0,5.23,2.34,5.23,5.23v0C965.95,37.14,963.61,39.48,960.72,39.48z"/>
			</g>
			<g>
				<path class="st5" d="M107.14,256.94H87.59c-2.89,0-5.23-2.34-5.23-5.23l0,0c0-2.89,2.34-5.23,5.23-5.23h19.54
					c2.89,0,5.23,2.34,5.23,5.23l0,0C112.37,254.6,110.03,256.94,107.14,256.94z"/>
				<path class="st5" d="M154.56,256.94h-19.54c-2.89,0-5.23-2.34-5.23-5.23l0,0c0-2.89,2.34-5.23,5.23-5.23h19.54
					c2.89,0,5.23,2.34,5.23,5.23l0,0C159.79,254.6,157.45,256.94,154.56,256.94z"/>
				<path class="st5" d="M201.98,256.94h-19.54c-2.89,0-5.23-2.34-5.23-5.23l0,0c0-2.89,2.34-5.23,5.23-5.23h19.54
					c2.89,0,5.23,2.34,5.23,5.23l0,0C207.21,254.6,204.87,256.94,201.98,256.94z"/>
				<path class="st5" d="M249.4,256.94h-19.54c-2.89,0-5.23-2.34-5.23-5.23l0,0c0-2.89,2.34-5.23,5.23-5.23h19.54
					c2.89,0,5.23,2.34,5.23,5.23l0,0C254.63,254.6,252.29,256.94,249.4,256.94z"/>
				<path class="st5" d="M296.82,256.94h-19.54c-2.89,0-5.23-2.34-5.23-5.23l0,0c0-2.89,2.34-5.23,5.23-5.23h19.54
					c2.89,0,5.23,2.34,5.23,5.23l0,0C302.05,254.6,299.71,256.94,296.82,256.94z"/>
				<path class="st5" d="M344.24,256.94H324.7c-2.89,0-5.23-2.34-5.23-5.23l0,0c0-2.89,2.34-5.23,5.23-5.23h19.54
					c2.89,0,5.23,2.34,5.23,5.23l0,0C349.47,254.6,347.13,256.94,344.24,256.94z"/>
				<path class="st5" d="M391.66,256.94h-19.54c-2.89,0-5.23-2.34-5.23-5.23l0,0c0-2.89,2.34-5.23,5.23-5.23h19.54
					c2.89,0,5.23,2.34,5.23,5.23l0,0C396.9,254.6,394.55,256.94,391.66,256.94z"/>
				<path class="st5" d="M439.09,256.94h-19.54c-2.89,0-5.23-2.34-5.23-5.23l0,0c0-2.89,2.34-5.23,5.23-5.23h19.54
					c2.89,0,5.23,2.34,5.23,5.23l0,0C444.32,254.6,441.97,256.94,439.09,256.94z"/>
				<path class="st5" d="M486.51,256.94h-19.54c-2.89,0-5.23-2.34-5.23-5.23l0,0c0-2.89,2.34-5.23,5.23-5.23h19.54
					c2.89,0,5.23,2.34,5.23,5.23l0,0C491.74,254.6,489.4,256.94,486.51,256.94z"/>
				<path class="st5" d="M533.93,256.94h-19.54c-2.89,0-5.23-2.34-5.23-5.23l0,0c0-2.89,2.34-5.23,5.23-5.23h19.54
					c2.89,0,5.23,2.34,5.23,5.23l0,0C539.16,254.6,536.82,256.94,533.93,256.94z"/>
				<path class="st5" d="M581.35,256.94h-19.54c-2.89,0-5.23-2.34-5.23-5.23l0,0c0-2.89,2.34-5.23,5.23-5.23h19.54
					c2.89,0,5.23,2.34,5.23,5.23l0,0C586.58,254.6,584.24,256.94,581.35,256.94z"/>
				<path class="st5" d="M628.77,256.94h-19.54c-2.89,0-5.23-2.34-5.23-5.23l0,0c0-2.89,2.34-5.23,5.23-5.23h19.54
					c2.89,0,5.23,2.34,5.23,5.23l0,0C634,254.6,631.66,256.94,628.77,256.94z"/>
				<path class="st5" d="M676.19,256.94h-19.54c-2.89,0-5.23-2.34-5.23-5.23l0,0c0-2.89,2.34-5.23,5.23-5.23h19.54
					c2.89,0,5.23,2.34,5.23,5.23l0,0C681.42,254.6,679.08,256.94,676.19,256.94z"/>
				<path class="st5" d="M723.61,256.94h-19.54c-2.89,0-5.23-2.34-5.23-5.23l0,0c0-2.89,2.34-5.23,5.23-5.23h19.54
					c2.89,0,5.23,2.34,5.23,5.23l0,0C728.84,254.6,726.5,256.94,723.61,256.94z"/>
				<path class="st5" d="M771.04,256.94h-19.54c-2.89,0-5.23-2.34-5.23-5.23l0,0c0-2.89,2.34-5.23,5.23-5.23h19.54
					c2.89,0,5.23,2.34,5.23,5.23l0,0C776.27,254.6,773.92,256.94,771.04,256.94z"/>
				<path class="st5" d="M818.46,256.94h-19.54c-2.89,0-5.23-2.34-5.23-5.23l0,0c0-2.89,2.34-5.23,5.23-5.23h19.54
					c2.89,0,5.23,2.34,5.23,5.23l0,0C823.69,254.6,821.35,256.94,818.46,256.94z"/>
				<path class="st5" d="M865.88,256.94h-19.54c-2.89,0-5.23-2.34-5.23-5.23l0,0c0-2.89,2.34-5.23,5.23-5.23h19.54
					c2.89,0,5.23,2.34,5.23,5.23l0,0C871.11,254.6,868.77,256.94,865.88,256.94z"/>
				<path class="st5" d="M913.3,256.94h-19.54c-2.89,0-5.23-2.34-5.23-5.23l0,0c0-2.89,2.34-5.23,5.23-5.23h19.54
					c2.89,0,5.23,2.34,5.23,5.23l0,0C918.53,254.6,916.19,256.94,913.3,256.94z"/>
				<path class="st5" d="M960.72,256.94h-19.54c-2.89,0-5.23-2.34-5.23-5.23l0,0c0-2.89,2.34-5.23,5.23-5.23h19.54
					c2.89,0,5.23,2.34,5.23,5.23l0,0C965.95,254.6,963.61,256.94,960.72,256.94z"/>
			</g>
		</g>
		<g class="st1">
			<path class="st5" d="M106.47,385.3H86.93c-2.89,0-5.23-2.34-5.23-5.23v0c0-2.89,2.34-5.23,5.23-5.23h19.54
				c2.89,0,5.23,2.34,5.23,5.23v0C111.7,382.96,109.36,385.3,106.47,385.3z"/>
			<path class="st5" d="M153.89,385.3h-19.54c-2.89,0-5.23-2.34-5.23-5.23v0c0-2.89,2.34-5.23,5.23-5.23h19.54
				c2.89,0,5.23,2.34,5.23,5.23v0C159.12,382.96,156.78,385.3,153.89,385.3z"/>
			<path class="st5" d="M201.32,385.3h-19.54c-2.89,0-5.23-2.34-5.23-5.23v0c0-2.89,2.34-5.23,5.23-5.23h19.54
				c2.89,0,5.23,2.34,5.23,5.23v0C206.55,382.96,204.2,385.3,201.32,385.3z"/>
			<path class="st5" d="M248.74,385.3H229.2c-2.89,0-5.23-2.34-5.23-5.23v0c0-2.89,2.34-5.23,5.23-5.23h19.54
				c2.89,0,5.23,2.34,5.23,5.23v0C253.97,382.96,251.63,385.3,248.74,385.3z"/>
			<path class="st5" d="M296.16,385.3h-19.54c-2.89,0-5.23-2.34-5.23-5.23v0c0-2.89,2.34-5.23,5.23-5.23h19.54
				c2.89,0,5.23,2.34,5.23,5.23v0C301.39,382.96,299.05,385.3,296.16,385.3z"/>
			<path class="st5" d="M343.58,385.3h-19.54c-2.89,0-5.23-2.34-5.23-5.23v0c0-2.89,2.34-5.23,5.23-5.23h19.54
				c2.89,0,5.23,2.34,5.23,5.23v0C348.81,382.96,346.47,385.3,343.58,385.3z"/>
			<path class="st5" d="M391,385.3h-19.54c-2.89,0-5.23-2.34-5.23-5.23v0c0-2.89,2.34-5.23,5.23-5.23H391c2.89,0,5.23,2.34,5.23,5.23
				v0C396.23,382.96,393.89,385.3,391,385.3z"/>
			<path class="st5" d="M438.42,385.3h-19.54c-2.89,0-5.23-2.34-5.23-5.23v0c0-2.89,2.34-5.23,5.23-5.23h19.54
				c2.89,0,5.23,2.34,5.23,5.23v0C443.65,382.96,441.31,385.3,438.42,385.3z"/>
			<path class="st5" d="M485.84,385.3H466.3c-2.89,0-5.23-2.34-5.23-5.23v0c0-2.89,2.34-5.23,5.23-5.23h19.54
				c2.89,0,5.23,2.34,5.23,5.23v0C491.07,382.96,488.73,385.3,485.84,385.3z"/>
		</g>
		<g class="st1">
			<g>
				<path class="st5" d="M398.07,486.51v-19.54c0-2.89,2.34-5.23,5.23-5.23h0c2.89,0,5.23,2.34,5.23,5.23v19.54
					c0,2.89-2.34,5.23-5.23,5.23h0C400.41,491.74,398.07,489.4,398.07,486.51z"/>
				<path class="st5" d="M398.07,533.94v-19.54c0-2.89,2.34-5.23,5.23-5.23h0c2.89,0,5.23,2.34,5.23,5.23v19.54
					c0,2.89-2.34,5.23-5.23,5.23h0C400.41,539.17,398.07,536.82,398.07,533.94z"/>
				<path class="st5" d="M398.07,581.36v-19.54c0-2.89,2.34-5.23,5.23-5.23h0c2.89,0,5.23,2.34,5.23,5.23v19.54
					c0,2.89-2.34,5.23-5.23,5.23h0C400.41,586.59,398.07,584.25,398.07,581.36z"/>
				<path class="st5" d="M398.07,628.78v-19.54c0-2.89,2.34-5.23,5.23-5.23h0c2.89,0,5.23,2.34,5.23,5.23v19.54
					c0,2.89-2.34,5.23-5.23,5.23h0C400.41,634.01,398.07,631.67,398.07,628.78z"/>
				<path class="st5" d="M398.07,676.2v-19.54c0-2.89,2.34-5.23,5.23-5.23h0c2.89,0,5.23,2.34,5.23,5.23v19.54
					c0,2.89-2.34,5.23-5.23,5.23h0C400.41,681.43,398.07,679.09,398.07,676.2z"/>
				<path class="st5" d="M398.07,723.62v-19.54c0-2.89,2.34-5.23,5.23-5.23h0c2.89,0,5.23,2.34,5.23,5.23v19.54
					c0,2.89-2.34,5.23-5.23,5.23h0C400.41,728.85,398.07,726.51,398.07,723.62z"/>
				<path class="st5" d="M398.07,771.04V751.5c0-2.89,2.34-5.23,5.23-5.23h0c2.89,0,5.23,2.34,5.23,5.23v19.54
					c0,2.89-2.34,5.23-5.23,5.23h0C400.41,776.27,398.07,773.93,398.07,771.04z"/>
				<path class="st5" d="M398.07,818.46v-19.54c0-2.89,2.34-5.23,5.23-5.23h0c2.89,0,5.23,2.34,5.23,5.23v19.54
					c0,2.89-2.34,5.23-5.23,5.23h0C400.41,823.69,398.07,821.35,398.07,818.46z"/>
				<path class="st5" d="M398.07,865.89v-19.54c0-2.89,2.34-5.23,5.23-5.23h0c2.89,0,5.23,2.34,5.23,5.23v19.54
					c0,2.89-2.34,5.23-5.23,5.23h0C400.41,871.12,398.07,868.77,398.07,865.89z"/>
				<path class="st5" d="M398.07,913.31v-19.54c0-2.89,2.34-5.23,5.23-5.23h0c2.89,0,5.23,2.34,5.23,5.23v19.54
					c0,2.89-2.34,5.23-5.23,5.23h0C400.41,918.54,398.07,916.2,398.07,913.31z"/>
				<path class="st5" d="M398.07,960.73v-19.54c0-2.89,2.34-5.23,5.23-5.23h0c2.89,0,5.23,2.34,5.23,5.23v19.54
					c0,2.89-2.34,5.23-5.23,5.23h0C400.41,965.96,398.07,963.62,398.07,960.73z"/>
			</g>
			<g>
				<path class="st5" d="M615.49,486.51v-19.54c0-2.89,2.34-5.23,5.23-5.23l0,0c2.89,0,5.23,2.34,5.23,5.23v19.54
					c0,2.89-2.34,5.23-5.23,5.23l0,0C617.83,491.74,615.49,489.4,615.49,486.51z"/>
				<path class="st5" d="M615.49,533.94v-19.54c0-2.89,2.34-5.23,5.23-5.23l0,0c2.89,0,5.23,2.34,5.23,5.23v19.54
					c0,2.89-2.34,5.23-5.23,5.23l0,0C617.83,539.17,615.49,536.82,615.49,533.94z"/>
				<path class="st5" d="M615.49,581.36v-19.54c0-2.89,2.34-5.23,5.23-5.23l0,0c2.89,0,5.23,2.34,5.23,5.23v19.54
					c0,2.89-2.34,5.23-5.23,5.23l0,0C617.83,586.59,615.49,584.25,615.49,581.36z"/>
				<path class="st5" d="M615.49,628.78v-19.54c0-2.89,2.34-5.23,5.23-5.23l0,0c2.89,0,5.23,2.34,5.23,5.23v19.54
					c0,2.89-2.34,5.23-5.23,5.23l0,0C617.83,634.01,615.49,631.67,615.49,628.78z"/>
				<path class="st5" d="M615.49,676.2v-19.54c0-2.89,2.34-5.23,5.23-5.23l0,0c2.89,0,5.23,2.34,5.23,5.23v19.54
					c0,2.89-2.34,5.23-5.23,5.23l0,0C617.83,681.43,615.49,679.09,615.49,676.2z"/>
				<path class="st5" d="M615.49,723.62v-19.54c0-2.89,2.34-5.23,5.23-5.23l0,0c2.89,0,5.23,2.34,5.23,5.23v19.54
					c0,2.89-2.34,5.23-5.23,5.23l0,0C617.83,728.85,615.49,726.51,615.49,723.62z"/>
				<path class="st5" d="M615.49,771.04V751.5c0-2.89,2.34-5.23,5.23-5.23l0,0c2.89,0,5.23,2.34,5.23,5.23v19.54
					c0,2.89-2.34,5.23-5.23,5.23l0,0C617.83,776.27,615.49,773.93,615.49,771.04z"/>
				<path class="st5" d="M615.49,818.46v-19.54c0-2.89,2.34-5.23,5.23-5.23l0,0c2.89,0,5.23,2.34,5.23,5.23v19.54
					c0,2.89-2.34,5.23-5.23,5.23l0,0C617.83,823.69,615.49,821.35,615.49,818.46z"/>
				<path class="st5" d="M615.49,865.89v-19.54c0-2.89,2.34-5.23,5.23-5.23l0,0c2.89,0,5.23,2.34,5.23,5.23v19.54
					c0,2.89-2.34,5.23-5.23,5.23l0,0C617.83,871.12,615.49,868.77,615.49,865.89z"/>
				<path class="st5" d="M615.49,913.31v-19.54c0-2.89,2.34-5.23,5.23-5.23l0,0c2.89,0,5.23,2.34,5.23,5.23v19.54
					c0,2.89-2.34,5.23-5.23,5.23l0,0C617.83,918.54,615.49,916.2,615.49,913.31z"/>
				<path class="st5" d="M615.49,960.73v-19.54c0-2.89,2.34-5.23,5.23-5.23l0,0c2.89,0,5.23,2.34,5.23,5.23v19.54
					c0,2.89-2.34,5.23-5.23,5.23l0,0C617.83,965.96,615.49,963.62,615.49,960.73z"/>
			</g>
		</g>
	</g>
	<g id="logo">
		<path class="st2" d="M632.62,432.18l-19.5-18.39H604v-4.77H369.03v580.69c0,18.94,15.35,34.29,34.29,34.29h217.35
			c18.94,0,34.29-15.35,34.29-34.29V483.16C654.96,462.99,646.35,444.85,632.62,432.18z M408.53,960.73c0,2.89-2.34,5.23-5.23,5.23
			c-2.89,0-5.23-2.34-5.23-5.23v-19.54c0-2.89,2.34-5.23,5.23-5.23c2.89,0,5.23,2.34,5.23,5.23V960.73z M408.53,913.31
			c0,2.89-2.34,5.23-5.23,5.23c-2.89,0-5.23-2.34-5.23-5.23v-19.54c0-2.89,2.34-5.23,5.23-5.23c2.89,0,5.23,2.34,5.23,5.23V913.31z
			 M408.53,865.89c0,2.89-2.34,5.23-5.23,5.23c-2.89,0-5.23-2.34-5.23-5.23v-19.54c0-2.89,2.34-5.23,5.23-5.23
			c2.89,0,5.23,2.34,5.23,5.23V865.89z M408.53,818.46c0,2.89-2.34,5.23-5.23,5.23c-2.89,0-5.23-2.34-5.23-5.23v-19.54
			c0-2.89,2.34-5.23,5.23-5.23c2.89,0,5.23,2.34,5.23,5.23V818.46z M408.53,771.04c0,2.89-2.34,5.23-5.23,5.23
			c-2.89,0-5.23-2.34-5.23-5.23V751.5c0-2.89,2.34-5.23,5.23-5.23c2.89,0,5.23,2.34,5.23,5.23V771.04z M408.53,723.62
			c0,2.89-2.34,5.23-5.23,5.23c-2.89,0-5.23-2.34-5.23-5.23v-19.54c0-2.89,2.34-5.23,5.23-5.23c2.89,0,5.23,2.34,5.23,5.23V723.62z
			 M408.53,676.2c0,2.89-2.34,5.23-5.23,5.23c-2.89,0-5.23-2.34-5.23-5.23v-19.54c0-2.89,2.34-5.23,5.23-5.23
			c2.89,0,5.23,2.34,5.23,5.23V676.2z M408.53,628.78c0,2.89-2.34,5.23-5.23,5.23c-2.89,0-5.23-2.34-5.23-5.23v-19.54
			c0-2.89,2.34-5.23,5.23-5.23c2.89,0,5.23,2.34,5.23,5.23V628.78z M408.53,581.36c0,2.89-2.34,5.23-5.23,5.23
			c-2.89,0-5.23-2.34-5.23-5.23v-19.54c0-2.89,2.34-5.23,5.23-5.23c2.89,0,5.23,2.34,5.23,5.23V581.36z M408.53,533.94
			c0,2.89-2.34,5.23-5.23,5.23c-2.89,0-5.23-2.34-5.23-5.23v-19.54c0-2.89,2.34-5.23,5.23-5.23c2.89,0,5.23,2.34,5.23,5.23V533.94z
			 M408.53,486.51c0,2.89-2.34,5.23-5.23,5.23c-2.89,0-5.23-2.34-5.23-5.23v-19.54c0-2.89,2.34-5.23,5.23-5.23
			c2.89,0,5.23,2.34,5.23,5.23V486.51z M625.95,960.73c0,2.89-2.34,5.23-5.23,5.23s-5.23-2.34-5.23-5.23v-19.54
			c0-2.89,2.34-5.23,5.23-5.23s5.23,2.34,5.23,5.23V960.73z M625.95,913.31c0,2.89-2.34,5.23-5.23,5.23s-5.23-2.34-5.23-5.23v-19.54
			c0-2.89,2.34-5.23,5.23-5.23s5.23,2.34,5.23,5.23V913.31z M625.95,865.89c0,2.89-2.34,5.23-5.23,5.23s-5.23-2.34-5.23-5.23v-19.54
			c0-2.89,2.34-5.23,5.23-5.23s5.23,2.34,5.23,5.23V865.89z M625.95,818.46c0,2.89-2.34,5.23-5.23,5.23s-5.23-2.34-5.23-5.23v-19.54
			c0-2.89,2.34-5.23,5.23-5.23s5.23,2.34,5.23,5.23V818.46z M625.95,771.04c0,2.89-2.34,5.23-5.23,5.23s-5.23-2.34-5.23-5.23V751.5
			c0-2.89,2.34-5.23,5.23-5.23s5.23,2.34,5.23,5.23V771.04z M625.95,723.62c0,2.89-2.34,5.23-5.23,5.23s-5.23-2.34-5.23-5.23v-19.54
			c0-2.89,2.34-5.23,5.23-5.23s5.23,2.34,5.23,5.23V723.62z M625.95,676.2c0,2.89-2.34,5.23-5.23,5.23s-5.23-2.34-5.23-5.23v-19.54
			c0-2.89,2.34-5.23,5.23-5.23s5.23,2.34,5.23,5.23V676.2z M625.95,628.78c0,2.89-2.34,5.23-5.23,5.23s-5.23-2.34-5.23-5.23v-19.54
			c0-2.89,2.34-5.23,5.23-5.23s5.23,2.34,5.23,5.23V628.78z M625.95,581.36c0,2.89-2.34,5.23-5.23,5.23s-5.23-2.34-5.23-5.23v-19.54
			c0-2.89,2.34-5.23,5.23-5.23s5.23,2.34,5.23,5.23V581.36z M625.95,533.94c0,2.89-2.34,5.23-5.23,5.23s-5.23-2.34-5.23-5.23v-19.54
			c0-2.89,2.34-5.23,5.23-5.23s5.23,2.34,5.23,5.23V533.94z M625.95,486.51c0,2.89-2.34,5.23-5.23,5.23s-5.23-2.34-5.23-5.23v-19.54
			c0-2.89,2.34-5.23,5.23-5.23s5.23,2.34,5.23,5.23V486.51z"/>
		<path class="st6" d="M613.12,413.79L483.29,285.93h-0.39v-8.31H22.03v8.31H2.13c-1.17,0-2.13,0.95-2.13,2.13v56.36
			c0,38.31,31.06,69.37,69.37,69.37l515.85,0.01c0,0,29.83,1.03,43.78,14.98L613.12,413.79z M106.47,385.3H86.93
			c-2.89,0-5.23-2.34-5.23-5.23c0-2.89,2.34-5.23,5.23-5.23h19.54c2.89,0,5.23,2.34,5.23,5.23
			C111.7,382.96,109.36,385.3,106.47,385.3z M153.89,385.3h-19.54c-2.89,0-5.23-2.34-5.23-5.23c0-2.89,2.34-5.23,5.23-5.23h19.54
			c2.89,0,5.23,2.34,5.23,5.23C159.12,382.96,156.78,385.3,153.89,385.3z M201.32,385.3h-19.54c-2.89,0-5.23-2.34-5.23-5.23
			c0-2.89,2.34-5.23,5.23-5.23h19.54c2.89,0,5.23,2.34,5.23,5.23C206.55,382.96,204.2,385.3,201.32,385.3z M248.74,385.3H229.2
			c-2.89,0-5.23-2.34-5.23-5.23c0-2.89,2.34-5.23,5.23-5.23h19.54c2.89,0,5.23,2.34,5.23,5.23
			C253.97,382.96,251.63,385.3,248.74,385.3z M296.16,385.3h-19.54c-2.89,0-5.23-2.34-5.23-5.23c0-2.89,2.34-5.23,5.23-5.23h19.54
			c2.89,0,5.23,2.34,5.23,5.23C301.39,382.96,299.05,385.3,296.16,385.3z M343.58,385.3h-19.54c-2.89,0-5.23-2.34-5.23-5.23
			c0-2.89,2.34-5.23,5.23-5.23h19.54c2.89,0,5.23,2.34,5.23,5.23C348.81,382.96,346.47,385.3,343.58,385.3z M391,385.3h-19.54
			c-2.89,0-5.23-2.34-5.23-5.23c0-2.89,2.34-5.23,5.23-5.23H391c2.89,0,5.23,2.34,5.23,5.23C396.23,382.96,393.89,385.3,391,385.3z
			 M438.42,385.3h-19.54c-2.89,0-5.23-2.34-5.23-5.23c0-2.89,2.34-5.23,5.23-5.23h19.54c2.89,0,5.23,2.34,5.23,5.23
			C443.65,382.96,441.31,385.3,438.42,385.3z M485.84,385.3H466.3c-2.89,0-5.23-2.34-5.23-5.23c0-2.89,2.34-5.23,5.23-5.23h19.54
			c2.89,0,5.23,2.34,5.23,5.23C491.07,382.96,488.73,385.3,485.84,385.3z"/>
		<path class="st2" d="M990.15,0H68.92C30.86,0,0,30.86,0,68.92v217.01l0.21,63.93c0,0,1.94-52.3,49.1-63.93h940.84
			c18.69,0,33.84-15.15,33.84-33.84V33.84C1023.99,15.15,1008.84,0,990.15,0z M112.37,251.71c0,2.89-2.34,5.23-5.23,5.23H87.59
			c-2.89,0-5.23-2.34-5.23-5.23v0c0-2.89,2.34-5.23,5.23-5.23h19.54C110.03,246.48,112.37,248.82,112.37,251.71L112.37,251.71z
			 M107.14,39.48H87.59c-2.89,0-5.23-2.34-5.23-5.23c0-2.89,2.34-5.23,5.23-5.23h19.54c2.89,0,5.23,2.34,5.23,5.23
			C112.37,37.14,110.03,39.48,107.14,39.48z M159.79,251.71c0,2.89-2.34,5.23-5.23,5.23h-19.54c-2.89,0-5.23-2.34-5.23-5.23v0
			c0-2.89,2.34-5.23,5.23-5.23h19.54C157.45,246.48,159.79,248.82,159.79,251.71L159.79,251.71z M154.56,39.48h-19.54
			c-2.89,0-5.23-2.34-5.23-5.23c0-2.89,2.34-5.23,5.23-5.23h19.54c2.89,0,5.23,2.34,5.23,5.23
			C159.79,37.14,157.45,39.48,154.56,39.48z M207.21,251.71c0,2.89-2.34,5.23-5.23,5.23h-19.54c-2.89,0-5.23-2.34-5.23-5.23v0
			c0-2.89,2.34-5.23,5.23-5.23h19.54C204.87,246.48,207.21,248.82,207.21,251.71L207.21,251.71z M201.98,39.48h-19.54
			c-2.89,0-5.23-2.34-5.23-5.23c0-2.89,2.34-5.23,5.23-5.23h19.54c2.89,0,5.23,2.34,5.23,5.23
			C207.21,37.14,204.87,39.48,201.98,39.48z M254.63,251.71c0,2.89-2.34,5.23-5.23,5.23h-19.54c-2.89,0-5.23-2.34-5.23-5.23v0
			c0-2.89,2.34-5.23,5.23-5.23h19.54C252.29,246.48,254.63,248.82,254.63,251.71L254.63,251.71z M249.4,39.48h-19.54
			c-2.89,0-5.23-2.34-5.23-5.23c0-2.89,2.34-5.23,5.23-5.23h19.54c2.89,0,5.23,2.34,5.23,5.23C254.63,37.14,252.29,39.48,249.4,39.48
			z M302.05,251.71c0,2.89-2.34,5.23-5.23,5.23h-19.54c-2.89,0-5.23-2.34-5.23-5.23v0c0-2.89,2.34-5.23,5.23-5.23h19.54
			C299.71,246.48,302.05,248.82,302.05,251.71L302.05,251.71z M296.82,39.48h-19.54c-2.89,0-5.23-2.34-5.23-5.23
			c0-2.89,2.34-5.23,5.23-5.23h19.54c2.89,0,5.23,2.34,5.23,5.23C302.05,37.14,299.71,39.48,296.82,39.48z M349.47,251.71
			c0,2.89-2.34,5.23-5.23,5.23H324.7c-2.89,0-5.23-2.34-5.23-5.23v0c0-2.89,2.34-5.23,5.23-5.23h19.54
			C347.13,246.48,349.47,248.82,349.47,251.71L349.47,251.71z M344.24,39.48H324.7c-2.89,0-5.23-2.34-5.23-5.23
			c0-2.89,2.34-5.23,5.23-5.23h19.54c2.89,0,5.23,2.34,5.23,5.23C349.47,37.14,347.13,39.48,344.24,39.48z M396.9,251.71
			c0,2.89-2.34,5.23-5.23,5.23h-19.54c-2.89,0-5.23-2.34-5.23-5.23v0c0-2.89,2.34-5.23,5.23-5.23h19.54
			C394.55,246.48,396.9,248.82,396.9,251.71L396.9,251.71z M391.66,39.48h-19.54c-2.89,0-5.23-2.34-5.23-5.23
			c0-2.89,2.34-5.23,5.23-5.23h19.54c2.89,0,5.23,2.34,5.23,5.23C396.9,37.14,394.55,39.48,391.66,39.48z M444.32,251.71
			c0,2.89-2.34,5.23-5.23,5.23h-19.54c-2.89,0-5.23-2.34-5.23-5.23v0c0-2.89,2.34-5.23,5.23-5.23h19.54
			C441.97,246.48,444.32,248.82,444.32,251.71L444.32,251.71z M439.09,39.48h-19.54c-2.89,0-5.23-2.34-5.23-5.23
			c0-2.89,2.34-5.23,5.23-5.23h19.54c2.89,0,5.23,2.34,5.23,5.23C444.32,37.14,441.97,39.48,439.09,39.48z M491.74,251.71
			c0,2.89-2.34,5.23-5.23,5.23h-19.54c-2.89,0-5.23-2.34-5.23-5.23v0c0-2.89,2.34-5.23,5.23-5.23h19.54
			C489.4,246.48,491.74,248.82,491.74,251.71L491.74,251.71z M486.51,39.48h-19.54c-2.89,0-5.23-2.34-5.23-5.23
			c0-2.89,2.34-5.23,5.23-5.23h19.54c2.89,0,5.23,2.34,5.23,5.23C491.74,37.14,489.4,39.48,486.51,39.48z M539.16,251.71
			c0,2.89-2.34,5.23-5.23,5.23h-19.54c-2.89,0-5.23-2.34-5.23-5.23v0c0-2.89,2.34-5.23,5.23-5.23h19.54
			C536.82,246.48,539.16,248.82,539.16,251.71L539.16,251.71z M533.93,39.48h-19.54c-2.89,0-5.23-2.34-5.23-5.23
			c0-2.89,2.34-5.23,5.23-5.23h19.54c2.89,0,5.23,2.34,5.23,5.23C539.16,37.14,536.82,39.48,533.93,39.48z M586.58,251.71
			c0,2.89-2.34,5.23-5.23,5.23h-19.54c-2.89,0-5.23-2.34-5.23-5.23v0c0-2.89,2.34-5.23,5.23-5.23h19.54
			C584.24,246.48,586.58,248.82,586.58,251.71L586.58,251.71z M581.35,39.48h-19.54c-2.89,0-5.23-2.34-5.23-5.23
			c0-2.89,2.34-5.23,5.23-5.23h19.54c2.89,0,5.23,2.34,5.23,5.23C586.58,37.14,584.24,39.48,581.35,39.48z M634,251.71
			c0,2.89-2.34,5.23-5.23,5.23h-19.54c-2.89,0-5.23-2.34-5.23-5.23v0c0-2.89,2.34-5.23,5.23-5.23h19.54
			C631.66,246.48,634,248.82,634,251.71L634,251.71z M628.77,39.48h-19.54c-2.89,0-5.23-2.34-5.23-5.23c0-2.89,2.34-5.23,5.23-5.23
			h19.54c2.89,0,5.23,2.34,5.23,5.23C634,37.14,631.66,39.48,628.77,39.48z M681.42,251.71c0,2.89-2.34,5.23-5.23,5.23h-19.54
			c-2.89,0-5.23-2.34-5.23-5.23v0c0-2.89,2.34-5.23,5.23-5.23h19.54C679.08,246.48,681.42,248.82,681.42,251.71L681.42,251.71z
			 M676.19,39.48h-19.54c-2.89,0-5.23-2.34-5.23-5.23c0-2.89,2.34-5.23,5.23-5.23h19.54c2.89,0,5.23,2.34,5.23,5.23
			C681.42,37.14,679.08,39.48,676.19,39.48z M728.84,251.71c0,2.89-2.34,5.23-5.23,5.23h-19.54c-2.89,0-5.23-2.34-5.23-5.23v0
			c0-2.89,2.34-5.23,5.23-5.23h19.54C726.5,246.48,728.84,248.82,728.84,251.71L728.84,251.71z M723.61,39.48h-19.54
			c-2.89,0-5.23-2.34-5.23-5.23c0-2.89,2.34-5.23,5.23-5.23h19.54c2.89,0,5.23,2.34,5.23,5.23C728.84,37.14,726.5,39.48,723.61,39.48
			z M776.27,251.71c0,2.89-2.34,5.23-5.23,5.23h-19.54c-2.89,0-5.23-2.34-5.23-5.23v0c0-2.89,2.34-5.23,5.23-5.23h19.54
			C773.92,246.48,776.27,248.82,776.27,251.71L776.27,251.71z M771.04,39.48h-19.54c-2.89,0-5.23-2.34-5.23-5.23
			c0-2.89,2.34-5.23,5.23-5.23h19.54c2.89,0,5.23,2.34,5.23,5.23C776.27,37.14,773.92,39.48,771.04,39.48z M823.69,251.71
			c0,2.89-2.34,5.23-5.23,5.23h-19.54c-2.89,0-5.23-2.34-5.23-5.23v0c0-2.89,2.34-5.23,5.23-5.23h19.54
			C821.35,246.48,823.69,248.82,823.69,251.71L823.69,251.71z M818.46,39.48h-19.54c-2.89,0-5.23-2.34-5.23-5.23
			c0-2.89,2.34-5.23,5.23-5.23h19.54c2.89,0,5.23,2.34,5.23,5.23C823.69,37.14,821.35,39.48,818.46,39.48z M871.11,251.71
			c0,2.89-2.34,5.23-5.23,5.23h-19.54c-2.89,0-5.23-2.34-5.23-5.23v0c0-2.89,2.34-5.23,5.23-5.23h19.54
			C868.77,246.48,871.11,248.82,871.11,251.71L871.11,251.71z M865.88,39.48h-19.54c-2.89,0-5.23-2.34-5.23-5.23
			c0-2.89,2.34-5.23,5.23-5.23h19.54c2.89,0,5.23,2.34,5.23,5.23C871.11,37.14,868.77,39.48,865.88,39.48z M918.53,251.71
			c0,2.89-2.34,5.23-5.23,5.23h-19.54c-2.89,0-5.23-2.34-5.23-5.23v0c0-2.89,2.34-5.23,5.23-5.23h19.54
			C916.19,246.48,918.53,248.82,918.53,251.71L918.53,251.71z M913.3,39.48h-19.54c-2.89,0-5.23-2.34-5.23-5.23
			c0-2.89,2.34-5.23,5.23-5.23h19.54c2.89,0,5.23,2.34,5.23,5.23C918.53,37.14,916.19,39.48,913.3,39.48z M965.95,251.71
			c0,2.89-2.34,5.23-5.23,5.23h-19.54c-2.89,0-5.23-2.34-5.23-5.23v0c0-2.89,2.34-5.23,5.23-5.23h19.54
			C963.61,246.48,965.95,248.82,965.95,251.71L965.95,251.71z M960.72,39.48h-19.54c-2.89,0-5.23-2.34-5.23-5.23
			c0-2.89,2.34-5.23,5.23-5.23h19.54c2.89,0,5.23,2.34,5.23,5.23C965.95,37.14,963.61,39.48,960.72,39.48z"/>
	</g>
</svg>
